# xmcd CD database file
#
# Track frame offsets:
#	150
#	16967
#	34135
#	56640
#	70189
#	86048
#	99209
#	120211
#	138855
#	154551
#	175825
#	194267
#	210692
#	228196
#	245862
#	260899
#	273777
#	291719
#	311492
#	325946
#
# Disc length: 4548 seconds
#
# Revision: 1
# Processed by: cddbd v1.5.2PL0 Copyright (c) Steve Scherf et al.
# Submitted via: CDex 1.70beta2
#
DISCID=1c11c214
DTITLE=ΘΕΟΔΩΡΙΔΟΥ - ΔΙΠΛΑ ΣΕ ΣΕΝΑ (BEST OF) CD2
DYEAR=2008
DGENRE=ΛΑΙΚΑ
TTITLE0=ΔΕΝ ΕΠΙΤΡΕΠΕΤΑΙ
TTITLE1=ΜΗ ΓΥΡΙΣΕΙΣ ΞΑΝΑ (AMULET)
TTITLE2=ΕΠΙΤΕΛΟΥΣ
TTITLE3=ΕΝΑ ΣΠΙΤΙ ΚΑΙΓΕΤΑΙ (ΚΡΙΜΑ)
TTITLE4=ΠΟΥ ΠΕΡΠΑΤΑΣ (TELLEMENT N' BRICK)
TTITLE5=ΔΕΝ ΞΕΡΩ ΠΟΣΟ Σ' ΑΓΑΠΩ
TTITLE6=ΔΕ ΣΕ ΞΕΠΕΡΑΣΑ
TTITLE7=ΕΧΩ ΜΙΑ ΑΓΚΑΛΙΑ
TTITLE8=ΠΑΡΑΝΟΜΗ ΑΓΑΠΗ ΜΟΥ
TTITLE9=ΣΚΟΥΠΙΔΙΑΡΙΚΟ
TTITLE10=ΚΑΤΑΖΗΤΕΙΤΑΙ (OJOS ASI)
TTITLE11=ΚΑΛΗΝΥΧΤΑ Σ' ΑΓΑΠΩ
TTITLE12=ΔΕΝ ΘΕΛΩ ΤΙΠΟΤΑ
TTITLE13=ΟΠΟΥ ΚΑΙ ΝΑ 'ΣΑΙ
TTITLE14=ΣΥΓΝΩΜΗ ΦΤΑΙΩ
TTITLE15=ΚΑΝΕ ΕΝΑ ΤΑΞΙΔΙ ΜΕΣΑ ΣΤΑ ΜΑΤΙΑ ΜΟΥ
TTITLE16=ΓΥΡΝΑ
TTITLE17=ΘΑ ΟΡΚΙΣΤΩ ΣΕ ΟΤΙ ΕΧΩ ΙΕΡΟ
TTITLE18=ΞΗΜΕΡΩΝΟΜΑΙ
TTITLE19=ΠΑΛΙ
EXTD=YEAR: 2008
EXTT0=
EXTT1=
EXTT2=
EXTT3=
EXTT4=
EXTT5=
EXTT6=
EXTT7=
EXTT8=
EXTT9=
EXTT10=
EXTT11=
EXTT12=
EXTT13=
EXTT14=
EXTT15=
EXTT16=
EXTT17=
EXTT18=
EXTT19=
PLAYORDER=
